<svg class="mr-4 fox" xmlns="http://www.w3.org/2000/svg" xml:space="preserve" version="1.1" viewBox="0 0 2500 2500" xmlns:xlink="http://www.w3.org/1999/xlink">
    <g class="juubi">
        <path class="hat-far stroke" d="M425.54 987.67c399.93,231.88 1404.73,238.97 1753.41,-14.5l-884.75 -572.56 -868.66 587.06z"></path>
        <path id="Face" class="fur stroke" d="M764.89 358.23l153.78 975.43c0,0 240.87,11.72 240.87,338.5 0,81.83 102.49,195.98 152.75,195.98 53.28,0 151.85,-116.96 151.85,-215.92 0,-280.87 212.37,-319.7 212.37,-319.7l181.49 -980.36 -398.94 373.45 -361.51 2.78 -332.65 -370.16z"></path>
        <path id="Beard" class="the-white stroke" d="M1112.41 1463.24c27.75,48.91 47.13,116.25 47.13,208.92 0,67.76 73.53,240.63 94.53,273.05 102.85,158.74 362.45,51.53 211.21,-102.64 87.07,120.65 -78,168.59 -64.61,103.11 18.15,-88.78 63.47,-208.78 63.47,-293.44 0,-83.54 18.79,-145.67 45.19,-191.74l-396.92 2.75z"></path>
        <path id="Moustache" class="the-white stroke" d="M1310.57 1425.43c-228.26,0 -246.72,780.26 -420.66,431.3 240.88,283.85 33.41,-659.42 423.8,-659.42 390.39,0 196.82,875.56 433.8,659.42 -199.92,306.71 -208.67,-431.3 -436.94,-431.3z"></path>
        <g id="Eyes">
            <path class="the-white stroke" d="M1309 925.57c341.37,29.38 288.36,43.6 359.52,-35.02 -55.99,266.45 -270.99,289.66 -388.28,289.66 -117.29,0 -284.85,-6.16 -342.14,-302.55 63.34,88.38 25.54,95.86 370.91,47.92z"></path>
            <circle class="pupil stroke" cx="1098.08" cy="1040.09" r="56.95"></circle>
            <circle class="pupil stroke" cx="1493.55" cy="1039.91" r="56.95"></circle>
        </g>
        <g id="Nose">
            <polygon class="fur" points="1117.06,928.63 1193.6,1438.27 1426.98,1437.07 1464.6,915.84 "></polygon>
            <polyline class="empty stroke" points="1117.06,928.63 1193.6,1438.27 1426.98,1437.07 1464.6,915.84 "></polyline>
        </g>
        <path class="hat-near stroke" d="M425.54 987.67c373.41,-229.86 1203.93,-306.18 1753.41,-14.5l-884.75 -572.56 -868.66 587.06z"></path>
        <path id="Mouth" class="empty stroke" d="M1222.82 1639.33c65.25,11.62 112.75,18.02 185.31,-10"></path>
        <polygon id="Snout" class="fur stroke" points="1193.6,1438.27 1426.98,1437.07 1467.48,1579.75 1155.11,1579.75 "></polygon>
    </g>
</svg>


