<svg class="xavier-logo" xmlns="http://www.w3.org/2000/svg" viewBox="52.5 -92.5 500 500">
    <title>Xaiver Mathematics Department</title>
    <path class="border-outer" d="M264.651,303.784l38.106-57.173l38.118,57.173l-38.114,21.979L264.651,303.784z M264.651,11.442
        l38.11-21.987l38.114,21.984l-38.118,57.174L264.651,11.442z M57-37.928l60.749,55.462l91.239,140.078l-90.621,139.122
        l-60.79,56.413h490.302l-60.688-56.355l-90.655-139.181l91.059-139.819l60.682-55.72H57L57-37.928z"></path>
    <path class="border-inner" d="M320.769,326.222l-18.01,10.393l-18.006-10.393l-33.478-19.312l51.484-77.228l51.487,77.228L320.769,326.222
        z M284.753-11.004l18.006-10.388l18.01,10.391l33.479,19.309l-51.488,77.238L251.275,8.31L284.753-11.004L284.753-11.004z
        M479.939,302.873l-94.613-145.261L480.391,11.65l43.77-40.183H81.221l43.745,39.936l95.238,146.217l-94.602,145.213L81.51,343.757
        h442.449L479.939,302.873L479.939,302.873z"></path>
    <path class="letter-x" d="M374.112,157.612L473.155,5.546l26.884-24.687H325.463l42.161,24.323l-64.866,97.295L237.901,5.182
        l42.157-24.323H105.441l26.745,24.417l99.225,152.335l-98.566,151.321l-27.403,25.427h174.618l-42.157-24.322l64.857-97.294
        l64.866,97.294l-42.161,24.322h174.576l-27.332-25.386L374.112,157.612z"></path>
</svg>
